<mxfile host="app.diagrams.net" agent="Mozilla/5.0 (Windows NT 10.0; Win64; x64) AppleWebKit/537.36 (KHTML, like Gecko) Chrome/135.0.0.0 Safari/537.36" version="26.2.13">
  <diagram name="Pagina-1" id="x7tw3Z8LI0zzPcUxsZkS">
    <mxGraphModel dx="814" dy="882" grid="1" gridSize="10" guides="1" tooltips="1" connect="1" arrows="1" fold="1" page="1" pageScale="1" pageWidth="827" pageHeight="1169" math="0" shadow="0">
      <root>
        <mxCell id="0" />
        <mxCell id="1" parent="0" />
        <mxCell id="MjtFeKzK_NJlihe6v4M_-12" style="edgeStyle=orthogonalEdgeStyle;rounded=0;orthogonalLoop=1;jettySize=auto;html=1;entryX=0;entryY=0.5;entryDx=0;entryDy=0;" edge="1" parent="1" source="MjtFeKzK_NJlihe6v4M_-1" target="MjtFeKzK_NJlihe6v4M_-9">
          <mxGeometry relative="1" as="geometry" />
        </mxCell>
        <mxCell id="MjtFeKzK_NJlihe6v4M_-1" value="UtenteNonLoggato" style="shape=umlActor;verticalLabelPosition=bottom;verticalAlign=top;html=1;outlineConnect=0;" vertex="1" parent="1">
          <mxGeometry x="1342" y="191" width="30" height="60" as="geometry" />
        </mxCell>
        <mxCell id="MjtFeKzK_NJlihe6v4M_-54" style="edgeStyle=orthogonalEdgeStyle;rounded=0;orthogonalLoop=1;jettySize=auto;html=1;endArrow=block;endFill=0;endSize=11;" edge="1" parent="1" source="MjtFeKzK_NJlihe6v4M_-4" target="MjtFeKzK_NJlihe6v4M_-6">
          <mxGeometry relative="1" as="geometry" />
        </mxCell>
        <mxCell id="MjtFeKzK_NJlihe6v4M_-74" style="edgeStyle=orthogonalEdgeStyle;rounded=0;orthogonalLoop=1;jettySize=auto;html=1;entryX=0;entryY=0.5;entryDx=0;entryDy=0;" edge="1" parent="1" source="MjtFeKzK_NJlihe6v4M_-4" target="MjtFeKzK_NJlihe6v4M_-19">
          <mxGeometry relative="1" as="geometry">
            <Array as="points">
              <mxPoint x="1575" y="470" />
              <mxPoint x="1930" y="470" />
              <mxPoint x="1930" y="420" />
              <mxPoint x="2020" y="420" />
              <mxPoint x="2020" y="365" />
            </Array>
          </mxGeometry>
        </mxCell>
        <mxCell id="MjtFeKzK_NJlihe6v4M_-75" style="edgeStyle=orthogonalEdgeStyle;rounded=0;orthogonalLoop=1;jettySize=auto;html=1;entryX=0;entryY=0.5;entryDx=0;entryDy=0;" edge="1" parent="1" source="MjtFeKzK_NJlihe6v4M_-4" target="MjtFeKzK_NJlihe6v4M_-35">
          <mxGeometry relative="1" as="geometry">
            <Array as="points">
              <mxPoint x="1575" y="470" />
              <mxPoint x="1930" y="470" />
              <mxPoint x="1930" y="420" />
              <mxPoint x="2020" y="420" />
              <mxPoint x="2020" y="280" />
            </Array>
          </mxGeometry>
        </mxCell>
        <mxCell id="MjtFeKzK_NJlihe6v4M_-76" style="edgeStyle=orthogonalEdgeStyle;rounded=0;orthogonalLoop=1;jettySize=auto;html=1;entryX=0;entryY=0.5;entryDx=0;entryDy=0;" edge="1" parent="1" source="MjtFeKzK_NJlihe6v4M_-4" target="MjtFeKzK_NJlihe6v4M_-36">
          <mxGeometry relative="1" as="geometry">
            <Array as="points">
              <mxPoint x="1575" y="470" />
              <mxPoint x="1930" y="470" />
              <mxPoint x="1930" y="420" />
              <mxPoint x="2020" y="420" />
              <mxPoint x="2020" y="200" />
            </Array>
          </mxGeometry>
        </mxCell>
        <mxCell id="MjtFeKzK_NJlihe6v4M_-86" style="edgeStyle=orthogonalEdgeStyle;rounded=0;orthogonalLoop=1;jettySize=auto;html=1;entryX=0;entryY=0.5;entryDx=0;entryDy=0;" edge="1" parent="1" source="MjtFeKzK_NJlihe6v4M_-4" target="MjtFeKzK_NJlihe6v4M_-37">
          <mxGeometry relative="1" as="geometry">
            <Array as="points">
              <mxPoint x="1575" y="470" />
              <mxPoint x="1840" y="470" />
              <mxPoint x="1840" y="365" />
            </Array>
          </mxGeometry>
        </mxCell>
        <mxCell id="MjtFeKzK_NJlihe6v4M_-87" style="edgeStyle=orthogonalEdgeStyle;rounded=0;orthogonalLoop=1;jettySize=auto;html=1;entryX=1;entryY=0.5;entryDx=0;entryDy=0;" edge="1" parent="1" source="MjtFeKzK_NJlihe6v4M_-4" target="MjtFeKzK_NJlihe6v4M_-28">
          <mxGeometry relative="1" as="geometry">
            <Array as="points">
              <mxPoint x="1575" y="470" />
              <mxPoint x="1820" y="470" />
              <mxPoint x="1820" y="380" />
            </Array>
          </mxGeometry>
        </mxCell>
        <mxCell id="MjtFeKzK_NJlihe6v4M_-88" style="edgeStyle=orthogonalEdgeStyle;rounded=0;orthogonalLoop=1;jettySize=auto;html=1;entryX=1;entryY=0.5;entryDx=0;entryDy=0;" edge="1" parent="1" source="MjtFeKzK_NJlihe6v4M_-4" target="MjtFeKzK_NJlihe6v4M_-26">
          <mxGeometry relative="1" as="geometry">
            <Array as="points">
              <mxPoint x="1575" y="470" />
              <mxPoint x="1820" y="470" />
              <mxPoint x="1820" y="290" />
            </Array>
          </mxGeometry>
        </mxCell>
        <mxCell id="MjtFeKzK_NJlihe6v4M_-89" style="edgeStyle=orthogonalEdgeStyle;rounded=0;orthogonalLoop=1;jettySize=auto;html=1;entryX=1;entryY=0.5;entryDx=0;entryDy=0;" edge="1" parent="1" source="MjtFeKzK_NJlihe6v4M_-4" target="MjtFeKzK_NJlihe6v4M_-24">
          <mxGeometry relative="1" as="geometry">
            <Array as="points">
              <mxPoint x="1575" y="470" />
              <mxPoint x="1820" y="470" />
              <mxPoint x="1820" y="195" />
            </Array>
          </mxGeometry>
        </mxCell>
        <mxCell id="MjtFeKzK_NJlihe6v4M_-90" style="edgeStyle=orthogonalEdgeStyle;rounded=0;orthogonalLoop=1;jettySize=auto;html=1;entryX=0;entryY=0.5;entryDx=0;entryDy=0;" edge="1" parent="1" source="MjtFeKzK_NJlihe6v4M_-4" target="MjtFeKzK_NJlihe6v4M_-38">
          <mxGeometry relative="1" as="geometry">
            <Array as="points">
              <mxPoint x="1575" y="470" />
              <mxPoint x="1840" y="470" />
              <mxPoint x="1840" y="280" />
            </Array>
          </mxGeometry>
        </mxCell>
        <mxCell id="MjtFeKzK_NJlihe6v4M_-91" style="edgeStyle=orthogonalEdgeStyle;rounded=0;orthogonalLoop=1;jettySize=auto;html=1;entryX=0;entryY=0.5;entryDx=0;entryDy=0;" edge="1" parent="1" source="MjtFeKzK_NJlihe6v4M_-4" target="MjtFeKzK_NJlihe6v4M_-27">
          <mxGeometry relative="1" as="geometry">
            <Array as="points">
              <mxPoint x="1575" y="470" />
              <mxPoint x="1840" y="470" />
              <mxPoint x="1840" y="195" />
            </Array>
          </mxGeometry>
        </mxCell>
        <mxCell id="MjtFeKzK_NJlihe6v4M_-92" style="edgeStyle=orthogonalEdgeStyle;rounded=0;orthogonalLoop=1;jettySize=auto;html=1;entryX=0;entryY=0.5;entryDx=0;entryDy=0;" edge="1" parent="1" source="MjtFeKzK_NJlihe6v4M_-4" target="MjtFeKzK_NJlihe6v4M_-29">
          <mxGeometry relative="1" as="geometry">
            <Array as="points">
              <mxPoint x="1575" y="470" />
              <mxPoint x="1977" y="470" />
            </Array>
          </mxGeometry>
        </mxCell>
        <mxCell id="MjtFeKzK_NJlihe6v4M_-4" value="Operator" style="shape=umlActor;verticalLabelPosition=bottom;verticalAlign=top;html=1;outlineConnect=0;" vertex="1" parent="1">
          <mxGeometry x="1560" y="525" width="30" height="60" as="geometry" />
        </mxCell>
        <mxCell id="MjtFeKzK_NJlihe6v4M_-53" style="edgeStyle=orthogonalEdgeStyle;rounded=0;orthogonalLoop=1;jettySize=auto;html=1;endArrow=block;endFill=0;endSize=11;" edge="1" parent="1" source="MjtFeKzK_NJlihe6v4M_-5" target="MjtFeKzK_NJlihe6v4M_-4">
          <mxGeometry relative="1" as="geometry" />
        </mxCell>
        <mxCell id="MjtFeKzK_NJlihe6v4M_-72" style="edgeStyle=orthogonalEdgeStyle;rounded=0;orthogonalLoop=1;jettySize=auto;html=1;entryX=0.5;entryY=1;entryDx=0;entryDy=0;" edge="1" parent="1" source="MjtFeKzK_NJlihe6v4M_-5" target="MjtFeKzK_NJlihe6v4M_-13">
          <mxGeometry relative="1" as="geometry">
            <Array as="points">
              <mxPoint x="1360" y="500" />
              <mxPoint x="1360" y="500" />
            </Array>
          </mxGeometry>
        </mxCell>
        <mxCell id="MjtFeKzK_NJlihe6v4M_-73" style="edgeStyle=orthogonalEdgeStyle;rounded=0;orthogonalLoop=1;jettySize=auto;html=1;entryX=0.5;entryY=1;entryDx=0;entryDy=0;" edge="1" parent="1" source="MjtFeKzK_NJlihe6v4M_-5" target="MjtFeKzK_NJlihe6v4M_-31">
          <mxGeometry relative="1" as="geometry">
            <Array as="points">
              <mxPoint x="1360" y="450" />
              <mxPoint x="1540" y="450" />
            </Array>
          </mxGeometry>
        </mxCell>
        <mxCell id="MjtFeKzK_NJlihe6v4M_-93" style="edgeStyle=orthogonalEdgeStyle;rounded=0;orthogonalLoop=1;jettySize=auto;html=1;entryX=0.5;entryY=1;entryDx=0;entryDy=0;" edge="1" parent="1">
          <mxGeometry relative="1" as="geometry">
            <mxPoint x="1360" y="525" as="sourcePoint" />
            <mxPoint x="1144" y="385" as="targetPoint" />
            <Array as="points">
              <mxPoint x="1360" y="450" />
              <mxPoint x="1144" y="450" />
            </Array>
          </mxGeometry>
        </mxCell>
        <mxCell id="MjtFeKzK_NJlihe6v4M_-5" value="Admin" style="shape=umlActor;verticalLabelPosition=bottom;verticalAlign=top;html=1;outlineConnect=0;" vertex="1" parent="1">
          <mxGeometry x="1345" y="525" width="30" height="60" as="geometry" />
        </mxCell>
        <mxCell id="MjtFeKzK_NJlihe6v4M_-77" style="edgeStyle=orthogonalEdgeStyle;rounded=0;orthogonalLoop=1;jettySize=auto;html=1;entryX=0;entryY=0.5;entryDx=0;entryDy=0;" edge="1" parent="1" source="MjtFeKzK_NJlihe6v4M_-6" target="MjtFeKzK_NJlihe6v4M_-50">
          <mxGeometry relative="1" as="geometry">
            <Array as="points">
              <mxPoint x="1810" y="625" />
            </Array>
          </mxGeometry>
        </mxCell>
        <mxCell id="MjtFeKzK_NJlihe6v4M_-78" style="edgeStyle=orthogonalEdgeStyle;rounded=0;orthogonalLoop=1;jettySize=auto;html=1;entryX=0.5;entryY=0;entryDx=0;entryDy=0;" edge="1" parent="1" source="MjtFeKzK_NJlihe6v4M_-6" target="MjtFeKzK_NJlihe6v4M_-46">
          <mxGeometry relative="1" as="geometry">
            <Array as="points">
              <mxPoint x="1810" y="740" />
              <mxPoint x="2068" y="740" />
            </Array>
          </mxGeometry>
        </mxCell>
        <mxCell id="MjtFeKzK_NJlihe6v4M_-79" style="edgeStyle=orthogonalEdgeStyle;rounded=0;orthogonalLoop=1;jettySize=auto;html=1;entryX=0.5;entryY=0;entryDx=0;entryDy=0;" edge="1" parent="1" source="MjtFeKzK_NJlihe6v4M_-6" target="MjtFeKzK_NJlihe6v4M_-42">
          <mxGeometry relative="1" as="geometry">
            <Array as="points">
              <mxPoint x="1810" y="740" />
              <mxPoint x="1578" y="740" />
            </Array>
          </mxGeometry>
        </mxCell>
        <mxCell id="MjtFeKzK_NJlihe6v4M_-81" style="edgeStyle=orthogonalEdgeStyle;rounded=0;orthogonalLoop=1;jettySize=auto;html=1;entryX=0.5;entryY=0;entryDx=0;entryDy=0;" edge="1" parent="1" source="MjtFeKzK_NJlihe6v4M_-6" target="MjtFeKzK_NJlihe6v4M_-40">
          <mxGeometry relative="1" as="geometry">
            <Array as="points">
              <mxPoint x="1810" y="695" />
              <mxPoint x="1280" y="695" />
              <mxPoint x="1280" y="760" />
            </Array>
          </mxGeometry>
        </mxCell>
        <mxCell id="MjtFeKzK_NJlihe6v4M_-82" style="edgeStyle=orthogonalEdgeStyle;rounded=0;orthogonalLoop=1;jettySize=auto;html=1;entryX=1;entryY=0.5;entryDx=0;entryDy=0;" edge="1" parent="1" target="MjtFeKzK_NJlihe6v4M_-21">
          <mxGeometry relative="1" as="geometry">
            <mxPoint x="1810" y="590" as="sourcePoint" />
            <mxPoint x="1260" y="460" as="targetPoint" />
            <Array as="points">
              <mxPoint x="1810" y="695" />
            </Array>
          </mxGeometry>
        </mxCell>
        <mxCell id="MjtFeKzK_NJlihe6v4M_-84" style="edgeStyle=orthogonalEdgeStyle;rounded=0;orthogonalLoop=1;jettySize=auto;html=1;entryX=1;entryY=0.5;entryDx=0;entryDy=0;" edge="1" parent="1" target="MjtFeKzK_NJlihe6v4M_-30">
          <mxGeometry relative="1" as="geometry">
            <mxPoint x="1810" y="580" as="sourcePoint" />
            <mxPoint x="1210.0000000000036" y="190" as="targetPoint" />
            <Array as="points">
              <mxPoint x="1810" y="695" />
              <mxPoint x="1280" y="695" />
              <mxPoint x="1280" y="535" />
            </Array>
          </mxGeometry>
        </mxCell>
        <mxCell id="MjtFeKzK_NJlihe6v4M_-6" value="Viewer" style="shape=umlActor;verticalLabelPosition=bottom;verticalAlign=top;html=1;outlineConnect=0;" vertex="1" parent="1">
          <mxGeometry x="1795" y="525" width="30" height="60" as="geometry" />
        </mxCell>
        <mxCell id="MjtFeKzK_NJlihe6v4M_-9" value="&lt;font&gt;UC1&lt;br&gt;Autenticazione&lt;/font&gt;&lt;div&gt;&lt;font&gt;al Sistema&lt;/font&gt;&lt;/div&gt;" style="ellipse;whiteSpace=wrap;html=1;fillColor=#dae8fc;strokeColor=#6c8ebf;" vertex="1" parent="1">
          <mxGeometry x="1452" y="186" width="140" height="70" as="geometry" />
        </mxCell>
        <mxCell id="MjtFeKzK_NJlihe6v4M_-13" value="UC2&lt;br&gt;Creazione Account" style="ellipse;whiteSpace=wrap;html=1;fillColor=#dae8fc;strokeColor=#6c8ebf;" vertex="1" parent="1">
          <mxGeometry x="1290" y="320" width="140" height="70" as="geometry" />
        </mxCell>
        <mxCell id="MjtFeKzK_NJlihe6v4M_-14" value="UC3&lt;br&gt;Ottenimento Account&lt;br&gt;Utente" style="ellipse;whiteSpace=wrap;html=1;fillColor=#dae8fc;strokeColor=#6c8ebf;" vertex="1" parent="1">
          <mxGeometry x="1075" y="315" width="140" height="70" as="geometry" />
        </mxCell>
        <mxCell id="MjtFeKzK_NJlihe6v4M_-16" value="UC19 - S19.1&lt;br&gt;Ottenimento Misurazioni&lt;br&gt;di Sensore Specifico" style="ellipse;whiteSpace=wrap;html=1;fillColor=#fff2cc;strokeColor=#d6b656;" vertex="1" parent="1">
          <mxGeometry x="1350" y="920" width="140" height="70" as="geometry" />
        </mxCell>
        <mxCell id="MjtFeKzK_NJlihe6v4M_-18" value="UC6 - S6.2&lt;br&gt;Ottenimento Network&lt;br&gt;Specifica" style="ellipse;whiteSpace=wrap;html=1;fillColor=#ffe6cc;strokeColor=#d79b00;" vertex="1" parent="1">
          <mxGeometry x="900" y="515" width="140" height="70" as="geometry" />
        </mxCell>
        <mxCell id="MjtFeKzK_NJlihe6v4M_-19" value="UC16&lt;br&gt;Modifica Sensore" style="ellipse;whiteSpace=wrap;html=1;fillColor=#ffe6cc;strokeColor=#d79b00;" vertex="1" parent="1">
          <mxGeometry x="2048" y="330" width="140" height="70" as="geometry" />
        </mxCell>
        <mxCell id="MjtFeKzK_NJlihe6v4M_-20" value="UC10 - S10.1&lt;br&gt;Ottenimento Elenco&lt;br&gt;Gateway" style="ellipse;whiteSpace=wrap;html=1;fillColor=#ffe6cc;strokeColor=#d79b00;" vertex="1" parent="1">
          <mxGeometry x="910" y="600" width="140" height="70" as="geometry" />
        </mxCell>
        <mxCell id="MjtFeKzK_NJlihe6v4M_-21" value="UC10&lt;br&gt;Ottenimento Gateway" style="ellipse;whiteSpace=wrap;html=1;fillColor=#ffe6cc;strokeColor=#d79b00;" vertex="1" parent="1">
          <mxGeometry x="1100" y="660" width="140" height="70" as="geometry" />
        </mxCell>
        <mxCell id="MjtFeKzK_NJlihe6v4M_-22" value="UC3 - S3.2&lt;br&gt;Ottenimento Account&lt;br&gt;Utente Specifico" style="ellipse;whiteSpace=wrap;html=1;fillColor=#dae8fc;strokeColor=#6c8ebf;" vertex="1" parent="1">
          <mxGeometry x="1140" y="190" width="140" height="70" as="geometry" />
        </mxCell>
        <mxCell id="MjtFeKzK_NJlihe6v4M_-23" value="UC3 - S3.1&lt;br&gt;Ottenimento Elenco&lt;br&gt;Account Utente" style="ellipse;whiteSpace=wrap;html=1;fillColor=#dae8fc;strokeColor=#6c8ebf;" vertex="1" parent="1">
          <mxGeometry x="955" y="210" width="140" height="70" as="geometry" />
        </mxCell>
        <mxCell id="MjtFeKzK_NJlihe6v4M_-24" value="UC5&lt;br&gt;Creazione Network" style="ellipse;whiteSpace=wrap;html=1;fillColor=#ffe6cc;strokeColor=#d79b00;" vertex="1" parent="1">
          <mxGeometry x="1647.5" y="160" width="140" height="70" as="geometry" />
        </mxCell>
        <mxCell id="MjtFeKzK_NJlihe6v4M_-25" value="UC6 - S6.1&lt;br&gt;Ottenimento Elenco&lt;br&gt;Network" style="ellipse;whiteSpace=wrap;html=1;fillColor=#ffe6cc;strokeColor=#d79b00;" vertex="1" parent="1">
          <mxGeometry x="935" y="400" width="140" height="70" as="geometry" />
        </mxCell>
        <mxCell id="MjtFeKzK_NJlihe6v4M_-26" value="UC7&lt;br&gt;Eliminazione Network" style="ellipse;whiteSpace=wrap;html=1;fillColor=#ffe6cc;strokeColor=#d79b00;" vertex="1" parent="1">
          <mxGeometry x="1647.5" y="255" width="140" height="70" as="geometry" />
        </mxCell>
        <mxCell id="MjtFeKzK_NJlihe6v4M_-27" value="UC9&lt;br&gt;Creazione Gateway" style="ellipse;whiteSpace=wrap;html=1;fillColor=#ffe6cc;strokeColor=#d79b00;" vertex="1" parent="1">
          <mxGeometry x="1870" y="160" width="140" height="70" as="geometry" />
        </mxCell>
        <mxCell id="MjtFeKzK_NJlihe6v4M_-28" value="UC8&lt;br&gt;Modifica Network" style="ellipse;whiteSpace=wrap;html=1;fillColor=#ffe6cc;strokeColor=#d79b00;" vertex="1" parent="1">
          <mxGeometry x="1647.5" y="345" width="140" height="70" as="geometry" />
        </mxCell>
        <mxCell id="MjtFeKzK_NJlihe6v4M_-29" value="UC17&lt;div&gt;Creazione Misurazione&lt;/div&gt;" style="ellipse;whiteSpace=wrap;html=1;fillColor=#fff2cc;strokeColor=#d6b656;" vertex="1" parent="1">
          <mxGeometry x="2048" y="435" width="140" height="70" as="geometry" />
        </mxCell>
        <mxCell id="MjtFeKzK_NJlihe6v4M_-30" value="UC6&lt;br&gt;Ottenimento Network" style="ellipse;whiteSpace=wrap;html=1;fillColor=#ffe6cc;strokeColor=#d79b00;" vertex="1" parent="1">
          <mxGeometry x="1095" y="500" width="140" height="70" as="geometry" />
        </mxCell>
        <mxCell id="MjtFeKzK_NJlihe6v4M_-31" value="UC4&lt;br&gt;Eliminazione Account" style="ellipse;whiteSpace=wrap;html=1;fillColor=#dae8fc;strokeColor=#6c8ebf;" vertex="1" parent="1">
          <mxGeometry x="1470" y="320" width="140" height="70" as="geometry" />
        </mxCell>
        <mxCell id="MjtFeKzK_NJlihe6v4M_-32" value="UC19 - S19.3&lt;br&gt;Ottenimento Outlier&lt;br&gt;di Sensore Specifico" style="ellipse;whiteSpace=wrap;html=1;fillColor=#fff2cc;strokeColor=#d6b656;" vertex="1" parent="1">
          <mxGeometry x="1660" y="920" width="140" height="70" as="geometry" />
        </mxCell>
        <mxCell id="MjtFeKzK_NJlihe6v4M_-34" value="UC14 - S14.2&lt;br&gt;Ottenimento Sensore&lt;br&gt;Specifico" style="ellipse;whiteSpace=wrap;html=1;fillColor=#ffe6cc;strokeColor=#d79b00;" vertex="1" parent="1">
          <mxGeometry x="1180" y="910" width="140" height="70" as="geometry" />
        </mxCell>
        <mxCell id="MjtFeKzK_NJlihe6v4M_-35" value="UC15&lt;br&gt;Eliminazione Sensore" style="ellipse;whiteSpace=wrap;html=1;fillColor=#ffe6cc;strokeColor=#d79b00;" vertex="1" parent="1">
          <mxGeometry x="2048" y="245" width="140" height="70" as="geometry" />
        </mxCell>
        <mxCell id="MjtFeKzK_NJlihe6v4M_-36" value="UC13&lt;br&gt;Creazione Sensore" style="ellipse;whiteSpace=wrap;html=1;fillColor=#ffe6cc;strokeColor=#d79b00;" vertex="1" parent="1">
          <mxGeometry x="2048" y="165" width="140" height="70" as="geometry" />
        </mxCell>
        <mxCell id="MjtFeKzK_NJlihe6v4M_-37" value="UC12&lt;br&gt;Modifica Gateway" style="ellipse;whiteSpace=wrap;html=1;fillColor=#ffe6cc;strokeColor=#d79b00;" vertex="1" parent="1">
          <mxGeometry x="1870" y="330" width="140" height="70" as="geometry" />
        </mxCell>
        <mxCell id="MjtFeKzK_NJlihe6v4M_-38" value="UC11&lt;br&gt;Eliminazione Gateway" style="ellipse;whiteSpace=wrap;html=1;fillColor=#ffe6cc;strokeColor=#d79b00;" vertex="1" parent="1">
          <mxGeometry x="1870" y="245" width="140" height="70" as="geometry" />
        </mxCell>
        <mxCell id="MjtFeKzK_NJlihe6v4M_-39" value="UC10 - S10.2&lt;br&gt;Ottenimento Gateway&lt;br&gt;Specifico" style="ellipse;whiteSpace=wrap;html=1;fillColor=#ffe6cc;strokeColor=#d79b00;" vertex="1" parent="1">
          <mxGeometry x="900" y="710" width="140" height="70" as="geometry" />
        </mxCell>
        <mxCell id="MjtFeKzK_NJlihe6v4M_-40" value="UC14&lt;br&gt;Ottenimento Sensore" style="ellipse;whiteSpace=wrap;html=1;fillColor=#ffe6cc;strokeColor=#d79b00;" vertex="1" parent="1">
          <mxGeometry x="1210" y="760" width="140" height="70" as="geometry" />
        </mxCell>
        <mxCell id="MjtFeKzK_NJlihe6v4M_-41" value="UC14 - S14.1&lt;br&gt;Ottenimento Elenco&lt;br&gt;Sensori" style="ellipse;whiteSpace=wrap;html=1;fillColor=#ffe6cc;strokeColor=#d79b00;" vertex="1" parent="1">
          <mxGeometry x="1050" y="800" width="140" height="70" as="geometry" />
        </mxCell>
        <mxCell id="MjtFeKzK_NJlihe6v4M_-42" value="UC19&lt;br&gt;Ottenimento Dati di&lt;br&gt;Sensore Specifico" style="ellipse;whiteSpace=wrap;html=1;fillColor=#fff2cc;strokeColor=#d6b656;" vertex="1" parent="1">
          <mxGeometry x="1507.5" y="790" width="140" height="70" as="geometry" />
        </mxCell>
        <mxCell id="MjtFeKzK_NJlihe6v4M_-43" value="UC19 - S19.2&lt;br&gt;Ottenimento Statistiche&lt;br&gt;di Sensore Specifico" style="ellipse;whiteSpace=wrap;html=1;fillColor=#fff2cc;strokeColor=#d6b656;" vertex="1" parent="1">
          <mxGeometry x="1510" y="920" width="140" height="70" as="geometry" />
        </mxCell>
        <mxCell id="MjtFeKzK_NJlihe6v4M_-44" value="&lt;br&gt;UC18 - S18.1&lt;br&gt;Ottenimento Misurazioni&lt;br&gt;Sensori di Network Specifica&lt;div&gt;&lt;br/&gt;&lt;/div&gt;" style="ellipse;whiteSpace=wrap;html=1;fillColor=#fff2cc;strokeColor=#d6b656;" vertex="1" parent="1">
          <mxGeometry x="1837.5" y="920" width="140" height="70" as="geometry" />
        </mxCell>
        <mxCell id="MjtFeKzK_NJlihe6v4M_-45" value="&lt;br&gt;UC18 - S18.3&lt;br&gt;Ottenimento Outlier&lt;br&gt;Sensori di Network Specifica&lt;div&gt;&lt;br&gt;&lt;/div&gt;" style="ellipse;whiteSpace=wrap;html=1;fillColor=#fff2cc;strokeColor=#d6b656;" vertex="1" parent="1">
          <mxGeometry x="2147.5" y="920" width="140" height="70" as="geometry" />
        </mxCell>
        <mxCell id="MjtFeKzK_NJlihe6v4M_-46" value="UC18&lt;br&gt;Ottenimento Dati&lt;br&gt;Sensori di Network&lt;br&gt;Specifica" style="ellipse;whiteSpace=wrap;html=1;fillColor=#fff2cc;strokeColor=#d6b656;" vertex="1" parent="1">
          <mxGeometry x="1997.5" y="790" width="140" height="70" as="geometry" />
        </mxCell>
        <mxCell id="MjtFeKzK_NJlihe6v4M_-47" value="&lt;br&gt;UC18 - S18.2&lt;br&gt;Ottenimento Statistiche&lt;br&gt;Sensori di Network Specifica&lt;div&gt;&lt;br&gt;&lt;/div&gt;" style="ellipse;whiteSpace=wrap;html=1;fillColor=#fff2cc;strokeColor=#d6b656;" vertex="1" parent="1">
          <mxGeometry x="1997.5" y="920" width="140" height="70" as="geometry" />
        </mxCell>
        <mxCell id="MjtFeKzK_NJlihe6v4M_-48" value="UC20 - S20.1&lt;br&gt;Conversione Timestamp&lt;br&gt;a Tempo Locale&lt;br&gt;Sensore" style="ellipse;whiteSpace=wrap;html=1;fillColor=#d5e8d4;strokeColor=#82b366;" vertex="1" parent="1">
          <mxGeometry x="2147.5" y="670" width="140" height="70" as="geometry" />
        </mxCell>
        <mxCell id="MjtFeKzK_NJlihe6v4M_-49" value="UC20 - S20.2&lt;br&gt;Riconversione Timestamp&lt;br&gt;a Tempo UTC" style="ellipse;whiteSpace=wrap;html=1;fillColor=#d5e8d4;strokeColor=#82b366;" vertex="1" parent="1">
          <mxGeometry x="2147.5" y="520" width="140" height="70" as="geometry" />
        </mxCell>
        <mxCell id="MjtFeKzK_NJlihe6v4M_-50" value="UC20&lt;br&gt;Conversione Timestamp" style="ellipse;whiteSpace=wrap;html=1;fillColor=#d5e8d4;strokeColor=#82b366;" vertex="1" parent="1">
          <mxGeometry x="1955.5" y="590" width="140" height="70" as="geometry" />
        </mxCell>
        <mxCell id="MjtFeKzK_NJlihe6v4M_-55" value="&amp;lt;&amp;lt;include&amp;gt;&amp;gt;" style="edgeStyle=none;html=1;endArrow=open;verticalAlign=bottom;dashed=1;labelBackgroundColor=none;rounded=0;exitX=0.5;exitY=1;exitDx=0;exitDy=0;entryX=0.5;entryY=0;entryDx=0;entryDy=0;" edge="1" parent="1" source="MjtFeKzK_NJlihe6v4M_-42" target="MjtFeKzK_NJlihe6v4M_-43">
          <mxGeometry width="160" relative="1" as="geometry">
            <mxPoint x="1640" y="890" as="sourcePoint" />
            <mxPoint x="1800" y="890" as="targetPoint" />
          </mxGeometry>
        </mxCell>
        <mxCell id="MjtFeKzK_NJlihe6v4M_-56" value="&amp;lt;&amp;lt;include&amp;gt;&amp;gt;" style="edgeStyle=none;html=1;endArrow=open;verticalAlign=bottom;dashed=1;labelBackgroundColor=none;rounded=0;exitX=1;exitY=1;exitDx=0;exitDy=0;entryX=0.5;entryY=0;entryDx=0;entryDy=0;" edge="1" parent="1" source="MjtFeKzK_NJlihe6v4M_-42" target="MjtFeKzK_NJlihe6v4M_-32">
          <mxGeometry width="160" relative="1" as="geometry">
            <mxPoint x="1587.5" y="870" as="sourcePoint" />
            <mxPoint x="1590.5" y="930" as="targetPoint" />
          </mxGeometry>
        </mxCell>
        <mxCell id="MjtFeKzK_NJlihe6v4M_-57" value="&amp;lt;&amp;lt;include&amp;gt;&amp;gt;" style="edgeStyle=none;html=1;endArrow=open;verticalAlign=bottom;dashed=1;labelBackgroundColor=none;rounded=0;exitX=0;exitY=1;exitDx=0;exitDy=0;entryX=0.5;entryY=0;entryDx=0;entryDy=0;" edge="1" parent="1" source="MjtFeKzK_NJlihe6v4M_-42" target="MjtFeKzK_NJlihe6v4M_-16">
          <mxGeometry width="160" relative="1" as="geometry">
            <mxPoint x="1597.5" y="880" as="sourcePoint" />
            <mxPoint x="1600.5" y="940" as="targetPoint" />
          </mxGeometry>
        </mxCell>
        <mxCell id="MjtFeKzK_NJlihe6v4M_-58" value="&amp;lt;&amp;lt;include&amp;gt;&amp;gt;" style="edgeStyle=none;html=1;endArrow=open;verticalAlign=bottom;dashed=1;labelBackgroundColor=none;rounded=0;exitX=0.5;exitY=1;exitDx=0;exitDy=0;entryX=0.5;entryY=0;entryDx=0;entryDy=0;" edge="1" parent="1" source="MjtFeKzK_NJlihe6v4M_-46" target="MjtFeKzK_NJlihe6v4M_-47">
          <mxGeometry width="160" relative="1" as="geometry">
            <mxPoint x="1607.5" y="890" as="sourcePoint" />
            <mxPoint x="1610.5" y="950" as="targetPoint" />
          </mxGeometry>
        </mxCell>
        <mxCell id="MjtFeKzK_NJlihe6v4M_-59" value="&amp;lt;&amp;lt;include&amp;gt;&amp;gt;" style="edgeStyle=none;html=1;endArrow=open;verticalAlign=bottom;dashed=1;labelBackgroundColor=none;rounded=0;exitX=0;exitY=1;exitDx=0;exitDy=0;entryX=0.5;entryY=0;entryDx=0;entryDy=0;" edge="1" parent="1" source="MjtFeKzK_NJlihe6v4M_-46" target="MjtFeKzK_NJlihe6v4M_-44">
          <mxGeometry width="160" relative="1" as="geometry">
            <mxPoint x="1617.5" y="900" as="sourcePoint" />
            <mxPoint x="1620.5" y="960" as="targetPoint" />
          </mxGeometry>
        </mxCell>
        <mxCell id="MjtFeKzK_NJlihe6v4M_-61" value="&amp;lt;&amp;lt;include&amp;gt;&amp;gt;" style="edgeStyle=none;html=1;endArrow=open;verticalAlign=bottom;dashed=1;labelBackgroundColor=none;rounded=0;exitX=1;exitY=1;exitDx=0;exitDy=0;entryX=0.5;entryY=0;entryDx=0;entryDy=0;" edge="1" parent="1" source="MjtFeKzK_NJlihe6v4M_-46" target="MjtFeKzK_NJlihe6v4M_-45">
          <mxGeometry width="160" relative="1" as="geometry">
            <mxPoint x="1577.5" y="860" as="sourcePoint" />
            <mxPoint x="1580.5" y="920" as="targetPoint" />
          </mxGeometry>
        </mxCell>
        <mxCell id="MjtFeKzK_NJlihe6v4M_-62" value="&amp;lt;&amp;lt;include&amp;gt;&amp;gt;" style="edgeStyle=none;html=1;endArrow=open;verticalAlign=bottom;dashed=1;labelBackgroundColor=none;rounded=0;exitX=1;exitY=0.5;exitDx=0;exitDy=0;entryX=0.5;entryY=0;entryDx=0;entryDy=0;" edge="1" parent="1" source="MjtFeKzK_NJlihe6v4M_-50" target="MjtFeKzK_NJlihe6v4M_-48">
          <mxGeometry width="160" relative="1" as="geometry">
            <mxPoint x="1685.5" y="910" as="sourcePoint" />
            <mxPoint x="1688.5" y="970" as="targetPoint" />
          </mxGeometry>
        </mxCell>
        <mxCell id="MjtFeKzK_NJlihe6v4M_-63" value="&amp;lt;&amp;lt;include&amp;gt;&amp;gt;" style="edgeStyle=none;html=1;endArrow=open;verticalAlign=bottom;dashed=1;labelBackgroundColor=none;rounded=0;exitX=1;exitY=0.5;exitDx=0;exitDy=0;entryX=0.5;entryY=1;entryDx=0;entryDy=0;" edge="1" parent="1" source="MjtFeKzK_NJlihe6v4M_-50" target="MjtFeKzK_NJlihe6v4M_-49">
          <mxGeometry width="160" relative="1" as="geometry">
            <mxPoint x="1695.5" y="920" as="sourcePoint" />
            <mxPoint x="1698.5" y="980" as="targetPoint" />
          </mxGeometry>
        </mxCell>
        <mxCell id="MjtFeKzK_NJlihe6v4M_-64" value="&amp;lt;&amp;lt;include&amp;gt;&amp;gt;" style="edgeStyle=none;html=1;endArrow=open;verticalAlign=bottom;dashed=1;labelBackgroundColor=none;rounded=0;exitX=0.5;exitY=0;exitDx=0;exitDy=0;entryX=0.5;entryY=1;entryDx=0;entryDy=0;" edge="1" parent="1" source="MjtFeKzK_NJlihe6v4M_-14" target="MjtFeKzK_NJlihe6v4M_-22">
          <mxGeometry width="160" relative="1" as="geometry">
            <mxPoint x="765" y="415" as="sourcePoint" />
            <mxPoint x="768" y="475" as="targetPoint" />
          </mxGeometry>
        </mxCell>
        <mxCell id="MjtFeKzK_NJlihe6v4M_-65" value="&amp;lt;&amp;lt;include&amp;gt;&amp;gt;" style="edgeStyle=none;html=1;endArrow=open;verticalAlign=bottom;dashed=1;labelBackgroundColor=none;rounded=0;exitX=0.5;exitY=0;exitDx=0;exitDy=0;entryX=0.5;entryY=1;entryDx=0;entryDy=0;" edge="1" parent="1" source="MjtFeKzK_NJlihe6v4M_-14" target="MjtFeKzK_NJlihe6v4M_-23">
          <mxGeometry width="160" relative="1" as="geometry">
            <mxPoint x="775" y="425" as="sourcePoint" />
            <mxPoint x="778" y="485" as="targetPoint" />
          </mxGeometry>
        </mxCell>
        <mxCell id="MjtFeKzK_NJlihe6v4M_-66" value="&amp;lt;&amp;lt;include&amp;gt;&amp;gt;" style="edgeStyle=none;html=1;endArrow=open;verticalAlign=bottom;dashed=1;labelBackgroundColor=none;rounded=0;exitX=0;exitY=0.5;exitDx=0;exitDy=0;entryX=1;entryY=0.5;entryDx=0;entryDy=0;" edge="1" parent="1" source="MjtFeKzK_NJlihe6v4M_-30" target="MjtFeKzK_NJlihe6v4M_-18">
          <mxGeometry x="0.1692" y="27" width="160" relative="1" as="geometry">
            <mxPoint x="1200" y="420" as="sourcePoint" />
            <mxPoint x="1203" y="480" as="targetPoint" />
            <mxPoint as="offset" />
          </mxGeometry>
        </mxCell>
        <mxCell id="MjtFeKzK_NJlihe6v4M_-67" value="&amp;lt;&amp;lt;include&amp;gt;&amp;gt;" style="edgeStyle=none;html=1;endArrow=open;verticalAlign=bottom;dashed=1;labelBackgroundColor=none;rounded=0;exitX=0;exitY=0.5;exitDx=0;exitDy=0;entryX=0.5;entryY=1;entryDx=0;entryDy=0;" edge="1" parent="1" source="MjtFeKzK_NJlihe6v4M_-30" target="MjtFeKzK_NJlihe6v4M_-25">
          <mxGeometry width="160" relative="1" as="geometry">
            <mxPoint x="1210" y="430" as="sourcePoint" />
            <mxPoint x="1213" y="490" as="targetPoint" />
          </mxGeometry>
        </mxCell>
        <mxCell id="MjtFeKzK_NJlihe6v4M_-68" value="&amp;lt;&amp;lt;include&amp;gt;&amp;gt;" style="edgeStyle=none;html=1;endArrow=open;verticalAlign=bottom;dashed=1;labelBackgroundColor=none;rounded=0;exitX=0;exitY=0.5;exitDx=0;exitDy=0;entryX=1;entryY=0.5;entryDx=0;entryDy=0;" edge="1" parent="1" source="MjtFeKzK_NJlihe6v4M_-21" target="MjtFeKzK_NJlihe6v4M_-39">
          <mxGeometry x="0.1639" y="8" width="160" relative="1" as="geometry">
            <mxPoint x="472" y="990" as="sourcePoint" />
            <mxPoint x="475" y="1050" as="targetPoint" />
            <mxPoint x="-1" as="offset" />
          </mxGeometry>
        </mxCell>
        <mxCell id="MjtFeKzK_NJlihe6v4M_-69" value="&amp;lt;&amp;lt;include&amp;gt;&amp;gt;" style="edgeStyle=none;html=1;endArrow=open;verticalAlign=bottom;dashed=1;labelBackgroundColor=none;rounded=0;exitX=0;exitY=0.5;exitDx=0;exitDy=0;entryX=1;entryY=0.5;entryDx=0;entryDy=0;" edge="1" parent="1" source="MjtFeKzK_NJlihe6v4M_-21" target="MjtFeKzK_NJlihe6v4M_-20">
          <mxGeometry width="160" relative="1" as="geometry">
            <mxPoint x="1220" y="690" as="sourcePoint" />
            <mxPoint x="1300" y="740" as="targetPoint" />
          </mxGeometry>
        </mxCell>
        <mxCell id="MjtFeKzK_NJlihe6v4M_-70" value="&amp;lt;&amp;lt;include&amp;gt;&amp;gt;" style="edgeStyle=none;html=1;endArrow=open;verticalAlign=bottom;dashed=1;labelBackgroundColor=none;rounded=0;exitX=0.5;exitY=1;exitDx=0;exitDy=0;entryX=0.5;entryY=0;entryDx=0;entryDy=0;" edge="1" parent="1" source="MjtFeKzK_NJlihe6v4M_-40" target="MjtFeKzK_NJlihe6v4M_-34">
          <mxGeometry width="160" relative="1" as="geometry">
            <mxPoint x="1498" y="845" as="sourcePoint" />
            <mxPoint x="1578" y="895" as="targetPoint" />
          </mxGeometry>
        </mxCell>
        <mxCell id="MjtFeKzK_NJlihe6v4M_-71" value="&amp;lt;&amp;lt;include&amp;gt;&amp;gt;" style="edgeStyle=none;html=1;endArrow=open;verticalAlign=bottom;dashed=1;labelBackgroundColor=none;rounded=0;exitX=0.5;exitY=1;exitDx=0;exitDy=0;entryX=1;entryY=0.5;entryDx=0;entryDy=0;" edge="1" parent="1" source="MjtFeKzK_NJlihe6v4M_-40" target="MjtFeKzK_NJlihe6v4M_-41">
          <mxGeometry x="0.0121" y="17" width="160" relative="1" as="geometry">
            <mxPoint x="1508" y="855" as="sourcePoint" />
            <mxPoint x="1588" y="905" as="targetPoint" />
            <mxPoint as="offset" />
          </mxGeometry>
        </mxCell>
      </root>
    </mxGraphModel>
  </diagram>
</mxfile>
